<?xml version="1.0" encoding="UTF-8" standalone="no"?>
<!-- Created with Inkscape (http://www.inkscape.org/) -->

<svg
   version="1.1"
   id="mapa-rs"
   width="592.01801"
   height="496.60754"
   viewBox="0 0 592.01801 496.60755"
   xmlns="http://www.w3.org/2000/svg"
   xmlns:svg="http://www.w3.org/2000/svg">
  <defs
     id="defs1" />
  <g
     id="layer1"
     style="fill:#ff00ff"
     transform="translate(-0.34991604,-0.56975394)">
    <path
       style="fill:#ff00ff;stroke:#ed4d4d;stroke-width:0.65607"
       d="m 161.5641,147.77984 c -0.35527,-0.45104 -0.83989,-1.63197 -1.07694,-2.62428 -0.48589,-2.034 -1.16549,-2.12633 -9.13323,-1.24085 -3.80499,0.42286 -4.76731,0.31077 -6.52891,-0.76052 -1.53123,-0.9312 -2.8729,-1.17897 -5.18241,-0.95706 -1.71396,0.16469 -3.41636,-6.4e-4 -3.78313,-0.3674 -1.10066,-1.10067 -5.39058,-2.39706 -9.39889,-2.84031 -2.07316,-0.22926 -4.10212,-0.81776 -4.50881,-1.30779 -0.40669,-0.49003 -1.31117,-0.89096 -2.00996,-0.89096 -0.69879,0 -1.11369,-0.25376 -0.92201,-0.56392 0.19169,-0.31015 -0.0123,-1.36812 -0.45333,-2.35104 -0.76594,-1.70708 -0.95937,-1.76935 -4.31858,-1.39006 -3.06906,0.34652 -3.88206,0.77297 -6.38677,3.35013 -2.42841,2.49865 -3.14921,2.89185 -4.68416,2.55525 -3.461635,-0.75911 -3.736303,-0.9247 -2.90791,-1.75309 0.42117,-0.42117 0.76577,-2.32011 0.76577,-4.21986 0,-3.93902 0.89277,-4.8124 4.91924,-4.8124 2.50836,0 2.29569,0.17348 8.61238,-7.02522 1.64901,-1.87926 4.29792,-4.04603 5.88648,-4.81504 3.21918,-1.55838 3.32283,-1.81814 1.85672,-4.65329 -0.56737,-1.09717 -0.88734,-2.37072 -0.71105,-2.83013 0.17629,-0.4594 2.55951,-1.36255 5.29603,-2.00699 5.25495,-1.23752 5.89297,-1.97197 4.29953,-4.94935 -0.49832,-0.93111 -0.40508,-1.786954 0.35473,-3.256274 1.00195,-1.937546 1.12613,-1.980897 4.44839,-1.552849 4.80818,0.619499 6.30078,1.29854 7.02158,3.19439 0.90227,2.373143 3.02726,2.183203 3.5384,-0.31627 0.22137,-1.082516 0.58016,-2.830291 0.79729,-3.883945 0.3479,-1.688165 0.0672,-2.153029 -2.36281,-3.91334 -1.51669,-1.098684 -3.31813,-2.175504 -4.00319,-2.392935 -1.92506,-0.610989 -1.48488,-1.441849 1.2147,-2.292825 1.35314,-0.426546 3.56105,-1.482753 4.90646,-2.347126 1.34541,-0.864373 2.7243,-1.571588 3.0642,-1.571588 0.33991,0 0.8118,-0.882309 1.04865,-1.960687 0.47062,-2.142721 1.64183,-3.335704 1.64183,-1.672353 0,1.379098 3.38415,2.9936 3.78078,1.803722 0.15213,-0.45638 1.22449,-1.834844 2.38303,-3.063254 1.46868,-1.557252 2.3825,-2.062852 3.01826,-1.669934 0.5015,0.309946 1.72806,0.460236 2.72569,0.333979 1.34741,-0.170525 1.91901,0.101726 2.22274,1.058691 0.2925,0.921581 0.77458,1.172178 1.69374,0.880448 1.11092,-0.352594 1.22736,-0.178674 0.86007,1.284724 -0.26525,1.056827 -0.15167,1.692524 0.30239,1.692524 0.39996,0 0.7272,0.442847 0.7272,0.984105 0,0.541258 -0.41939,0.984106 -0.93197,0.984106 -0.51259,0 -1.12652,0.885695 -1.36428,1.968211 -0.35997,1.638943 -0.75284,1.968211 -2.34837,1.968211 -1.59667,0 -1.91608,0.268289 -1.91608,1.609395 0,1.190295 -0.59011,1.889417 -2.26607,2.684715 -3.18165,1.509791 -3.90215,2.518401 -2.92115,4.089239 0.64527,1.03323 0.56073,1.76486 -0.45438,3.932517 -1.35656,2.896773 -3.57816,4.303113 -8.56206,5.420023 -3.54848,0.79524 -7.44667,3.57201 -7.44667,5.30444 0,0.87918 -0.47187,1.23427 -1.64017,1.23427 -1.02056,0 -1.64018,0.37178 -1.64018,0.98411 0,0.54126 0.41126,0.9841 0.91392,0.9841 0.50265,0 1.08385,0.44285 1.29155,0.98411 0.2077,0.54126 1.01351,0.98411 1.7907,0.98411 1.16277,0 1.27262,0.16921 0.62018,0.95536 -0.94796,1.14221 -0.26106,2.55639 1.0056,2.07033 0.49321,-0.18926 1.082,-0.0443 1.30844,0.32205 0.22644,0.36639 1.04778,0.60483 1.82521,0.52987 0.77742,-0.075 1.85634,0.0518 2.3976,0.28166 0.54126,0.22987 1.57457,0.50963 2.29624,0.62168 0.72168,0.11205 1.9585,0.55913 2.74849,0.99351 1.02345,0.56276 1.56337,0.58425 1.87824,0.0748 0.30602,-0.49515 0.65177,-0.50514 1.12443,-0.0325 0.90505,0.90504 3.10579,-0.26166 3.10579,-1.64651 0,-0.76644 0.41189,-0.92877 1.59997,-0.63058 0.87999,0.22086 1.75688,0.14769 1.94865,-0.16261 0.2944,-0.47634 2.72815,-0.45265 9.73681,0.0948 0.63147,0.0493 1.14812,0.32165 1.14812,0.60516 0,0.28352 0.22143,0.457 0.49205,0.3855 1.10718,-0.29247 3.44437,0.93868 3.44437,1.81438 0,0.51694 0.56993,0.93989 1.26652,0.93989 0.81382,0 1.34155,0.52762 1.47647,1.47616 0.15112,1.06247 0.5776,1.41524 1.52179,1.25879 0.7215,-0.11955 2.24881,-0.37064 3.39401,-0.55799 1.54889,-0.25338 2.36658,-0.008 3.1925,0.95612 0.65854,0.76911 1.6132,1.16522 2.34628,0.97352 0.8612,-0.22521 1.23598,0.0233 1.23598,0.81942 0,0.90127 0.38764,1.0651 1.8351,0.77561 1.00929,-0.20186 2.24239,-0.11529 2.7402,0.19237 0.63702,0.3937 -0.0523,0.83733 -2.32715,1.49774 -2.87112,0.83351 -3.2546,1.161 -3.43226,2.93116 -0.16584,1.65237 -0.55812,2.06587 -2.29624,2.42046 l -2.09625,0.42765 1.62407,1.23772 1.62408,1.23771 -1.81907,0.45656 c -1.00049,0.2511 -3.01171,0.26584 -4.46938,0.0328 -2.3362,-0.37357 -2.69369,-0.25794 -3.01628,0.97564 -0.31734,1.21355 -0.68017,1.34185 -2.73129,0.96588 -1.30093,-0.23847 -3.54625,-0.60858 -4.9896,-0.82247 l -2.62428,-0.38891 1.31214,1.4953 1.31214,1.4953 -1.47616,-0.41522 c -0.81189,-0.22838 -2.06662,-0.58274 -2.7883,-0.78748 -0.7251,-0.2057 -1.31214,-0.0589 -1.31214,0.32804 0,0.38516 -0.41085,0.70028 -0.91298,0.70028 -0.50215,0 -1.09618,0.72991 -1.32009,1.62202 -0.44651,1.77903 -2.81,4.28261 -4.04298,4.28261 -0.42903,0 -1.07073,-0.36904 -1.426,-0.82009 z"
       id="path4" />
  </g>
</svg>
